<svg aria-roledescription="er" role="graphics-document document" viewBox="0 0 1590.9295654296875 1017" style="max-width: 1590.93px; background-color: white;" xmlns:xlink="http://www.w3.org/1999/xlink" xmlns="http://www.w3.org/2000/svg" width="100%" id="my-svg"><style>#my-svg{font-family:"trebuchet ms",verdana,arial,sans-serif;font-size:16px;fill:#333;}#my-svg .error-icon{fill:#552222;}#my-svg .error-text{fill:#552222;stroke:#552222;}#my-svg .edge-thickness-normal{stroke-width:1px;}#my-svg .edge-thickness-thick{stroke-width:3.5px;}#my-svg .edge-pattern-solid{stroke-dasharray:0;}#my-svg .edge-thickness-invisible{stroke-width:0;fill:none;}#my-svg .edge-pattern-dashed{stroke-dasharray:3;}#my-svg .edge-pattern-dotted{stroke-dasharray:2;}#my-svg .marker{fill:#333333;stroke:#333333;}#my-svg .marker.cross{stroke:#333333;}#my-svg svg{font-family:"trebuchet ms",verdana,arial,sans-serif;font-size:16px;}#my-svg p{margin:0;}#my-svg .entityBox{fill:#ECECFF;stroke:#9370DB;}#my-svg .attributeBoxOdd{fill:#ffffff;stroke:#9370DB;}#my-svg .attributeBoxEven{fill:#f2f2f2;stroke:#9370DB;}#my-svg .relationshipLabelBox{fill:hsl(80, 100%, 96.2745098039%);opacity:0.7;background-color:hsl(80, 100%, 96.2745098039%);}#my-svg .relationshipLabelBox rect{opacity:0.5;}#my-svg .relationshipLine{stroke:#333333;}#my-svg .entityTitleText{text-anchor:middle;font-size:18px;fill:#333;}#my-svg #MD_PARENT_START{fill:#f5f5f5!important;stroke:#333333!important;stroke-width:1;}#my-svg #MD_PARENT_END{fill:#f5f5f5!important;stroke:#333333!important;stroke-width:1;}#my-svg :root{--mermaid-font-family:"trebuchet ms",verdana,arial,sans-serif;}</style><g/><defs><marker orient="auto" markerHeight="240" markerWidth="190" refY="7" refX="0" id="MD_PARENT_START"><path d="M 18,7 L9,13 L1,7 L9,1 Z"/></marker></defs><defs><marker orient="auto" markerHeight="28" markerWidth="20" refY="7" refX="19" id="MD_PARENT_END"><path d="M 18,7 L9,13 L1,7 L9,1 Z"/></marker></defs><defs><marker orient="auto" markerHeight="18" markerWidth="18" refY="9" refX="0" id="ONLY_ONE_START"><path d="M9,0 L9,18 M15,0 L15,18" fill="none" stroke="gray"/></marker></defs><defs><marker orient="auto" markerHeight="18" markerWidth="18" refY="9" refX="18" id="ONLY_ONE_END"><path d="M3,0 L3,18 M9,0 L9,18" fill="none" stroke="gray"/></marker></defs><defs><marker orient="auto" markerHeight="18" markerWidth="30" refY="9" refX="0" id="ZERO_OR_ONE_START"><circle r="6" cy="9" cx="21" fill="white" stroke="gray"/><path d="M9,0 L9,18" fill="none" stroke="gray"/></marker></defs><defs><marker orient="auto" markerHeight="18" markerWidth="30" refY="9" refX="30" id="ZERO_OR_ONE_END"><circle r="6" cy="9" cx="9" fill="white" stroke="gray"/><path d="M21,0 L21,18" fill="none" stroke="gray"/></marker></defs><defs><marker orient="auto" markerHeight="36" markerWidth="45" refY="18" refX="18" id="ONE_OR_MORE_START"><path d="M0,18 Q 18,0 36,18 Q 18,36 0,18 M42,9 L42,27" fill="none" stroke="gray"/></marker></defs><defs><marker orient="auto" markerHeight="36" markerWidth="45" refY="18" refX="27" id="ONE_OR_MORE_END"><path d="M3,9 L3,27 M9,18 Q27,0 45,18 Q27,36 9,18" fill="none" stroke="gray"/></marker></defs><defs><marker orient="auto" markerHeight="36" markerWidth="57" refY="18" refX="18" id="ZERO_OR_MORE_START"><circle r="6" cy="18" cx="48" fill="white" stroke="gray"/><path d="M0,18 Q18,0 36,18 Q18,36 0,18" fill="none" stroke="gray"/></marker></defs><defs><marker orient="auto" markerHeight="36" markerWidth="57" refY="18" refX="39" id="ZERO_OR_MORE_END"><circle r="6" cy="18" cx="9" fill="white" stroke="gray"/><path d="M21,18 Q39,0 57,18 Q39,36 21,18" fill="none" stroke="gray"/></marker></defs><path style="stroke: gray; fill: none;" marker-start="url(#ONLY_ONE_START)" marker-end="url(#ONLY_ONE_END)" d="M691.298,74.84L657.58,86.533C623.862,98.227,556.426,121.613,522.708,144.14C488.99,166.667,488.99,188.333,488.99,199.167L488.99,210" class="er relationshipLine"/><path style="stroke: gray; fill: none;" marker-start="url(#ONLY_ONE_START)" marker-end="url(#ZERO_OR_ONE_END)" d="M691.298,66.068L614.529,79.223C537.761,92.379,384.224,118.689,307.456,142.678C230.688,166.667,230.688,188.333,230.688,199.167L230.688,210" class="er relationshipLine"/><path style="stroke: gray; fill: none;" marker-start="url(#ONLY_ONE_START)" marker-end="url(#ZERO_OR_ONE_END)" d="M691.298,64.017L587.748,77.514C484.199,91.011,277.099,118.006,173.55,146.086C70,174.167,70,203.333,70,232.5C70,261.667,70,290.833,70,324.5C70,358.167,70,396.333,70,434.5C70,472.667,70,510.833,70,541C70,571.167,70,593.333,70,604.417L70,615.5" class="er relationshipLine"/><path style="stroke: gray; fill: none;" marker-start="url(#ONLY_ONE_START)" marker-end="url(#ONLY_ONE_END)" d="M791.298,74.84L825.016,86.533C858.734,98.227,926.17,121.613,959.887,141.64C993.605,161.667,993.605,178.333,993.605,186.667L993.605,195" class="er relationshipLine"/><path style="stroke: gray; fill: none;" marker-start="url(#ONLY_ONE_START)" marker-end="url(#ONLY_ONE_END)" d="M791.298,65.421L875.016,78.684C958.734,91.948,1126.17,118.474,1209.887,146.32C1293.605,174.167,1293.605,203.333,1293.605,232.5C1293.605,261.667,1293.605,290.833,1293.605,318.25C1293.605,345.667,1293.605,371.333,1293.605,384.167L1293.605,397" class="er relationshipLine"/><path style="stroke: gray; fill: none;" marker-start="url(#ONLY_ONE_START)" marker-end="url(#ZERO_OR_ONE_END)" d="M791.298,63.174L911.469,76.812C1031.64,90.45,1271.982,117.725,1392.153,145.946C1512.324,174.167,1512.324,203.333,1512.324,232.5C1512.324,261.667,1512.324,290.833,1512.324,318.25C1512.324,345.667,1512.324,371.333,1512.324,384.167L1512.324,397" class="er relationshipLine"/><path style="stroke: gray; fill: none;" marker-start="url(#ONLY_ONE_START)" marker-end="url(#ONE_OR_MORE_END)" d="M488.99,255L488.99,265.833C488.99,276.667,488.99,298.333,488.99,322C488.99,345.667,488.99,371.333,488.99,384.167L488.99,397" class="er relationshipLine"/><path style="stroke: gray; fill: none;" marker-start="url(#ONLY_ONE_START)" marker-end="url(#ONLY_ONE_END)" d="M433.295,464.609L407.277,478.674C381.259,492.739,329.223,520.87,303.205,546.768C277.188,572.667,277.188,596.333,277.188,608.167L277.188,620" class="er relationshipLine"/><path style="stroke: gray; fill: none;" marker-start="url(#ONLY_ONE_START)" marker-end="url(#ONLY_ONE_END)" d="M488.99,472L488.99,484.833C488.99,497.667,488.99,523.333,488.99,549.75C488.99,576.167,488.99,603.333,488.99,616.917L488.99,630.5" class="er relationshipLine"/><path style="stroke: gray; fill: none;" marker-start="url(#ONLY_ONE_START)" marker-end="url(#ONLY_ONE_END)" d="M544.686,465.666L569.506,479.555C594.326,493.444,643.965,521.222,668.785,546.944C693.605,572.667,693.605,596.333,693.605,608.167L693.605,620" class="er relationshipLine"/><path style="stroke: gray; fill: none;" marker-start="url(#ONLY_ONE_START)" marker-end="url(#ONE_OR_MORE_END)" d="M70,690.5L70,701.583C70,712.667,70,734.833,229.674,757.401C389.349,779.968,708.698,802.936,868.372,814.42L1028.047,825.904" class="er relationshipLine"/><path style="stroke: gray; fill: none;" marker-start="url(#ONLY_ONE_START)" marker-end="url(#ONLY_ONE_END)" d="M1078.047,852L1078.047,860.333C1078.047,868.667,1078.047,885.333,1078.047,902C1078.047,918.667,1078.047,935.333,1078.047,943.667L1078.047,952" class="er relationshipLine"/><path style="stroke: gray; fill: none;" marker-start="url(#ONLY_ONE_START)" marker-end="url(#ONE_OR_MORE_END)" d="M993.605,270L993.605,278.333C993.605,286.667,993.605,303.333,993.605,320C993.605,336.667,993.605,353.333,993.605,361.667L993.605,370" class="er relationshipLine"/><path style="stroke: gray; fill: none;" marker-start="url(#ONLY_ONE_START)" marker-end="url(#ZERO_OR_MORE_END)" d="M993.605,499L993.605,507.333C993.605,515.667,993.605,532.333,993.605,551.75C993.605,571.167,993.605,593.333,993.605,604.417L993.605,615.5" class="er relationshipLine"/><path style="stroke: gray; fill: none;" marker-start="url(#ONLY_ONE_START)" marker-end="url(#ZERO_OR_MORE_END)" d="M941.39,474.358L925.093,486.798C908.795,499.238,876.2,524.119,859.903,553.893C843.605,583.667,843.605,618.333,843.605,653C843.605,687.667,843.605,722.333,874.346,749.173C905.086,776.013,966.566,795.025,997.307,804.531L1028.047,814.038" class="er relationshipLine"/><path style="stroke: gray; fill: none;" marker-start="url(#ONLY_ONE_START)" marker-end="url(#ZERO_OR_MORE_END)" d="M993.605,690.5L993.605,701.583C993.605,712.667,993.605,734.833,1003.311,754.25C1013.017,773.667,1032.429,790.333,1042.135,798.667L1051.841,807" class="er relationshipLine"/><path style="stroke: gray; fill: none;" marker-start="url(#ONLY_ONE_START)" marker-end="url(#ONE_OR_MORE_END)" d="M1293.605,472L1293.605,484.833C1293.605,497.667,1293.605,523.333,1293.605,544.5C1293.605,565.667,1293.605,582.333,1293.605,590.667L1293.605,599" class="er relationshipLine"/><path style="stroke: gray; fill: none;" marker-start="url(#ONLY_ONE_START)" marker-end="url(#ONE_OR_MORE_END)" d="M1343.605,700.55L1353.499,709.958C1363.392,719.366,1383.178,738.183,1405.642,755.925C1428.105,773.667,1453.245,790.333,1465.815,798.667L1478.385,807" class="er relationshipLine"/><path style="stroke: gray; fill: none;" marker-start="url(#ONLY_ONE_START)" marker-end="url(#ONE_OR_MORE_END)" d="M1243.605,687.667L1226.939,699.222C1210.272,710.778,1176.939,733.889,1152.737,753.778C1128.534,773.667,1113.463,790.333,1105.928,798.667L1098.393,807" class="er relationshipLine"/><path style="stroke: gray; fill: none;" marker-start="url(#ONLY_ONE_START)" marker-end="url(#ONE_OR_MORE_END)" d="M1512.324,472L1512.324,484.833C1512.324,497.667,1512.324,523.333,1512.324,549.75C1512.324,576.167,1512.324,603.333,1512.324,616.917L1512.324,630.5" class="er relationshipLine"/><path style="stroke: gray; fill: none;" marker-start="url(#ONLY_ONE_START)" marker-end="url(#ONE_OR_MORE_END)" d="M1467.03,675.5L1439.686,689.083C1412.342,702.667,1357.653,729.833,1301.156,752.814C1244.659,775.794,1186.353,794.589,1157.2,803.986L1128.047,813.383" class="er relationshipLine"/><path style="stroke: gray; fill: none;" marker-start="url(#ONLY_ONE_START)" marker-end="url(#ONE_OR_MORE_END)" d="M1523.141,675.5L1529.672,689.083C1536.202,702.667,1549.263,729.833,1550.047,751.75C1550.83,773.667,1539.336,790.333,1533.588,798.667L1527.841,807" class="er relationshipLine"/><g transform="translate(691.2978286743164,20 )" id="entity-Resume-0102db79-6222-59d5-a5eb-266da301f73b"><rect height="75" width="100" y="0" x="0" class="er entityBox"/><text style="dominant-baseline: middle; text-anchor: middle; font-size: 12px;" transform="translate(50,37.5)" y="0" x="0" id="text-entity-Resume-0102db79-6222-59d5-a5eb-266da301f73b" class="er entityLabel">Resume</text></g><g transform="translate(434.2949676513672,210 )" id="entity-HeaderSection-7f9d8b8a-59de-510c-ac73-e61037e67baf"><rect height="45" width="109.390625" y="0" x="0" class="er entityBox"/><text style="dominant-baseline: middle; text-anchor: middle; font-size: 12px;" transform="translate(54.6953125,12)" y="0" x="0" id="text-entity-HeaderSection-7f9d8b8a-59de-510c-ac73-e61037e67baf" class="er entityLabel">HeaderSection</text><rect height="21" width="54.40928649902344" y="24" x="0" class="er attributeBoxOdd"/><text style="dominant-baseline: middle; font-size: 10.2px;" transform="translate(5,34.5)" y="0" x="0" id="text-entity-HeaderSection-7f9d8b8a-59de-510c-ac73-e61037e67baf-attr-1-type" class="er entityLabel">string</text><rect height="21" width="54.98133850097656" y="24" x="54.40928649902344" class="er attributeBoxOdd"/><text style="dominant-baseline: middle; font-size: 10.2px;" transform="translate(59.40928649902344,34.5)" y="0" x="0" id="text-entity-HeaderSection-7f9d8b8a-59de-510c-ac73-e61037e67baf-attr-1-name" class="er entityLabel">name</text></g><g transform="translate(170,210 )" id="entity-SummarySection-5909c1b4-63d5-50f2-8867-fa486741080e"><rect height="45" width="121.375" y="0" x="0" class="er entityBox"/><text style="dominant-baseline: middle; text-anchor: middle; font-size: 12px;" transform="translate(60.6875,12)" y="0" x="0" id="text-entity-SummarySection-5909c1b4-63d5-50f2-8867-fa486741080e" class="er entityLabel">SummarySection</text><rect height="21" width="56.5167236328125" y="24" x="0" class="er attributeBoxOdd"/><text style="dominant-baseline: middle; font-size: 10.2px;" transform="translate(5,34.5)" y="0" x="0" id="text-entity-SummarySection-5909c1b4-63d5-50f2-8867-fa486741080e-attr-1-type" class="er entityLabel">string</text><rect height="21" width="64.8582763671875" y="24" x="56.5167236328125" class="er attributeBoxOdd"/><text style="dominant-baseline: middle; font-size: 10.2px;" transform="translate(61.5167236328125,34.5)" y="0" x="0" id="text-entity-SummarySection-5909c1b4-63d5-50f2-8867-fa486741080e-attr-1-name" class="er entityLabel">content</text></g><g transform="translate(20,615.5 )" id="entity-SkillsSection-096ff646-e424-5e7d-988b-97bfd213fdf6"><rect height="75" width="100" y="0" x="0" class="er entityBox"/><text style="dominant-baseline: middle; text-anchor: middle; font-size: 12px;" transform="translate(50,37.5)" y="0" x="0" id="text-entity-SkillsSection-096ff646-e424-5e7d-988b-97bfd213fdf6" class="er entityLabel">SkillsSection</text></g><g transform="translate(931.9022521972656,195 )" id="entity-EducationSection-0d7fc55d-76c9-5523-9ffb-c467796a670e"><rect height="75" width="123.40625" y="0" x="0" class="er entityBox"/><text style="dominant-baseline: middle; text-anchor: middle; font-size: 12px;" transform="translate(61.703125,37.5)" y="0" x="0" id="text-entity-EducationSection-0d7fc55d-76c9-5523-9ffb-c467796a670e" class="er entityLabel">EducationSection</text></g><g transform="translate(1228.5741271972656,397 )" id="entity-ExperienceSection-15f05565-6453-5451-9c94-5136da477313"><rect height="75" width="130.0625" y="0" x="0" class="er entityBox"/><text style="dominant-baseline: middle; text-anchor: middle; font-size: 12px;" transform="translate(65.03125,37.5)" y="0" x="0" id="text-entity-ExperienceSection-15f05565-6453-5451-9c94-5136da477313" class="er entityLabel">ExperienceSection</text></g><g transform="translate(1458.6366271972656,397 )" id="entity-ProjectSection-5380a43b-6409-5104-938b-3b05ac37016d"><rect height="75" width="107.375" y="0" x="0" class="er entityBox"/><text style="dominant-baseline: middle; text-anchor: middle; font-size: 12px;" transform="translate(53.6875,37.5)" y="0" x="0" id="text-entity-ProjectSection-5380a43b-6409-5104-938b-3b05ac37016d" class="er entityLabel">ProjectSection</text></g><g transform="translate(433.2949676513672,397 )" id="entity-ContactMethod-891838d3-1f79-5a7d-8970-deabb4dc18ea"><rect height="75" width="111.390625" y="0" x="0" class="er entityBox"/><text style="dominant-baseline: middle; text-anchor: middle; font-size: 12px;" transform="translate(55.6953125,37.5)" y="0" x="0" id="text-entity-ContactMethod-891838d3-1f79-5a7d-8970-deabb4dc18ea" class="er entityLabel">ContactMethod</text></g><g transform="translate(220,620 )" id="entity-Phone-390d1ab0-df13-5a77-ab27-46566d725ba3"><rect height="66" width="114.37518310546875" y="0" x="0" class="er entityBox"/><text style="dominant-baseline: middle; text-anchor: middle; font-size: 12px;" transform="translate(57.187591552734375,12)" y="0" x="0" id="text-entity-Phone-390d1ab0-df13-5a77-ab27-46566d725ba3" class="er entityLabel">Phone</text><rect height="21" width="45.14947509765625" y="24" x="0" class="er attributeBoxOdd"/><text style="dominant-baseline: middle; font-size: 10.2px;" transform="translate(5,34.5)" y="0" x="0" id="text-entity-Phone-390d1ab0-df13-5a77-ab27-46566d725ba3-attr-1-type" class="er entityLabel">number</text><rect height="21" width="69.2257080078125" y="24" x="45.14947509765625" class="er attributeBoxOdd"/><text style="dominant-baseline: middle; font-size: 10.2px;" transform="translate(50.14947509765625,34.5)" y="0" x="0" id="text-entity-Phone-390d1ab0-df13-5a77-ab27-46566d725ba3-attr-1-name" class="er entityLabel">country-code</text><rect height="21" width="45.14947509765625" y="45" x="0" class="er attributeBoxEven"/><text style="dominant-baseline: middle; font-size: 10.2px;" transform="translate(5,55.5)" y="0" x="0" id="text-entity-Phone-390d1ab0-df13-5a77-ab27-46566d725ba3-attr-2-type" class="er entityLabel">number</text><rect height="21" width="69.2257080078125" y="45" x="45.14947509765625" class="er attributeBoxEven"/><text style="dominant-baseline: middle; font-size: 10.2px;" transform="translate(50.14947509765625,55.5)" y="0" x="0" id="text-entity-Phone-390d1ab0-df13-5a77-ab27-46566d725ba3-attr-2-name" class="er entityLabel">number</text></g><g transform="translate(434.37518310546875,630.5 )" id="entity-Email-2a76a549-4aa5-581c-8d7a-461e2070f3af"><rect height="45" width="109.23019409179688" y="0" x="0" class="er entityBox"/><text style="dominant-baseline: middle; text-anchor: middle; font-size: 12px;" transform="translate(54.61509704589844,12)" y="0" x="0" id="text-entity-Email-2a76a549-4aa5-581c-8d7a-461e2070f3af" class="er entityLabel">Email</text><rect height="21" width="35.245819091796875" y="24" x="0" class="er attributeBoxOdd"/><text style="dominant-baseline: middle; font-size: 10.2px;" transform="translate(5,34.5)" y="0" x="0" id="text-entity-Email-2a76a549-4aa5-581c-8d7a-461e2070f3af-attr-1-type" class="er entityLabel">string</text><rect height="21" width="73.984375" y="24" x="35.245819091796875" class="er attributeBoxOdd"/><text style="dominant-baseline: middle; font-size: 10.2px;" transform="translate(40.245819091796875,34.5)" y="0" x="0" id="text-entity-Email-2a76a549-4aa5-581c-8d7a-461e2070f3af-attr-1-name" class="er entityLabel">email-address</text></g><g transform="translate(643.6053771972656,620 )" id="entity-Link-4a61f919-0a00-593c-b3b2-55e484dad3b2"><rect height="66" width="100" y="0" x="0" class="er entityBox"/><text style="dominant-baseline: middle; text-anchor: middle; font-size: 12px;" transform="translate(50,12)" y="0" x="0" id="text-entity-Link-4a61f919-0a00-593c-b3b2-55e484dad3b2" class="er entityLabel">Link</text><rect height="21" width="46.313995361328125" y="24" x="0" class="er attributeBoxOdd"/><text style="dominant-baseline: middle; font-size: 10.2px;" transform="translate(5,34.5)" y="0" x="0" id="text-entity-Link-4a61f919-0a00-593c-b3b2-55e484dad3b2-attr-1-type" class="er entityLabel">string</text><rect height="21" width="53.686004638671875" y="24" x="46.313995361328125" class="er attributeBoxOdd"/><text style="dominant-baseline: middle; font-size: 10.2px;" transform="translate(51.313995361328125,34.5)" y="0" x="0" id="text-entity-Link-4a61f919-0a00-593c-b3b2-55e484dad3b2-attr-1-name" class="er entityLabel">display</text><rect height="21" width="46.313995361328125" y="45" x="0" class="er attributeBoxEven"/><text style="dominant-baseline: middle; font-size: 10.2px;" transform="translate(5,55.5)" y="0" x="0" id="text-entity-Link-4a61f919-0a00-593c-b3b2-55e484dad3b2-attr-2-type" class="er entityLabel">string</text><rect height="21" width="53.686004638671875" y="45" x="46.313995361328125" class="er attributeBoxEven"/><text style="dominant-baseline: middle; font-size: 10.2px;" transform="translate(51.313995361328125,55.5)" y="0" x="0" id="text-entity-Link-4a61f919-0a00-593c-b3b2-55e484dad3b2-attr-2-name" class="er entityLabel">href</text></g><g transform="translate(1028.0467376708984,807 )" id="entity-Skill-fd7b9bc5-b153-5940-bc6e-fe5255893b9b"><rect height="45" width="100" y="0" x="0" class="er entityBox"/><text style="dominant-baseline: middle; text-anchor: middle; font-size: 12px;" transform="translate(50,12)" y="0" x="0" id="text-entity-Skill-fd7b9bc5-b153-5940-bc6e-fe5255893b9b" class="er entityLabel">Skill</text><rect height="21" width="49.71397399902344" y="24" x="0" class="er attributeBoxOdd"/><text style="dominant-baseline: middle; font-size: 10.2px;" transform="translate(5,34.5)" y="0" x="0" id="text-entity-Skill-fd7b9bc5-b153-5940-bc6e-fe5255893b9b-attr-1-type" class="er entityLabel">string</text><rect height="21" width="50.28602600097656" y="24" x="49.71397399902344" class="er attributeBoxOdd"/><text style="dominant-baseline: middle; font-size: 10.2px;" transform="translate(54.71397399902344,34.5)" y="0" x="0" id="text-entity-Skill-fd7b9bc5-b153-5940-bc6e-fe5255893b9b-attr-1-name" class="er entityLabel">name</text></g><g transform="translate(1027.6951751708984,952 )" id="entity-SkillCategory-aef1aa75-573a-588b-8eb7-dcf9aa90d813"><rect height="45" width="100.703125" y="0" x="0" class="er entityBox"/><text style="dominant-baseline: middle; text-anchor: middle; font-size: 12px;" transform="translate(50.3515625,12)" y="0" x="0" id="text-entity-SkillCategory-aef1aa75-573a-588b-8eb7-dcf9aa90d813" class="er entityLabel">SkillCategory</text><rect height="21" width="50.06553649902344" y="24" x="0" class="er attributeBoxOdd"/><text style="dominant-baseline: middle; font-size: 10.2px;" transform="translate(5,34.5)" y="0" x="0" id="text-entity-SkillCategory-aef1aa75-573a-588b-8eb7-dcf9aa90d813-attr-1-type" class="er entityLabel">string</text><rect height="21" width="50.63758850097656" y="24" x="50.06553649902344" class="er attributeBoxOdd"/><text style="dominant-baseline: middle; font-size: 10.2px;" transform="translate(55.06553649902344,34.5)" y="0" x="0" id="text-entity-SkillCategory-aef1aa75-573a-588b-8eb7-dcf9aa90d813-attr-1-name" class="er entityLabel">name</text></g><g transform="translate(941.3900146484375,370 )" id="entity-Degree-e331dda9-0526-510e-8fce-15ac3e71ba34"><rect height="129" width="104.43072509765625" y="0" x="0" class="er entityBox"/><text style="dominant-baseline: middle; text-anchor: middle; font-size: 12px;" transform="translate(52.215362548828125,12)" y="0" x="0" id="text-entity-Degree-e331dda9-0526-510e-8fce-15ac3e71ba34" class="er entityLabel">Degree</text><rect height="21" width="45.14947509765625" y="24" x="0" class="er attributeBoxOdd"/><text style="dominant-baseline: middle; font-size: 10.2px;" transform="translate(5,34.5)" y="0" x="0" id="text-entity-Degree-e331dda9-0526-510e-8fce-15ac3e71ba34-attr-1-type" class="er entityLabel">string</text><rect height="21" width="59.28125" y="24" x="45.14947509765625" class="er attributeBoxOdd"/><text style="dominant-baseline: middle; font-size: 10.2px;" transform="translate(50.14947509765625,34.5)" y="0" x="0" id="text-entity-Degree-e331dda9-0526-510e-8fce-15ac3e71ba34-attr-1-name" class="er entityLabel">level</text><rect height="21" width="45.14947509765625" y="45" x="0" class="er attributeBoxEven"/><text style="dominant-baseline: middle; font-size: 10.2px;" transform="translate(5,55.5)" y="0" x="0" id="text-entity-Degree-e331dda9-0526-510e-8fce-15ac3e71ba34-attr-2-type" class="er entityLabel">string</text><rect height="21" width="59.28125" y="45" x="45.14947509765625" class="er attributeBoxEven"/><text style="dominant-baseline: middle; font-size: 10.2px;" transform="translate(50.14947509765625,55.5)" y="0" x="0" id="text-entity-Degree-e331dda9-0526-510e-8fce-15ac3e71ba34-attr-2-name" class="er entityLabel">major</text><rect height="21" width="45.14947509765625" y="66" x="0" class="er attributeBoxOdd"/><text style="dominant-baseline: middle; font-size: 10.2px;" transform="translate(5,76.5)" y="0" x="0" id="text-entity-Degree-e331dda9-0526-510e-8fce-15ac3e71ba34-attr-3-type" class="er entityLabel">string</text><rect height="21" width="59.28125" y="66" x="45.14947509765625" class="er attributeBoxOdd"/><text style="dominant-baseline: middle; font-size: 10.2px;" transform="translate(50.14947509765625,76.5)" y="0" x="0" id="text-entity-Degree-e331dda9-0526-510e-8fce-15ac3e71ba34-attr-3-name" class="er entityLabel">minor</text><rect height="21" width="45.14947509765625" y="87" x="0" class="er attributeBoxEven"/><text style="dominant-baseline: middle; font-size: 10.2px;" transform="translate(5,97.5)" y="0" x="0" id="text-entity-Degree-e331dda9-0526-510e-8fce-15ac3e71ba34-attr-4-type" class="er entityLabel">number</text><rect height="21" width="59.28125" y="87" x="45.14947509765625" class="er attributeBoxEven"/><text style="dominant-baseline: middle; font-size: 10.2px;" transform="translate(50.14947509765625,97.5)" y="0" x="0" id="text-entity-Degree-e331dda9-0526-510e-8fce-15ac3e71ba34-attr-4-name" class="er entityLabel">gpa</text><rect height="21" width="45.14947509765625" y="108" x="0" class="er attributeBoxOdd"/><text style="dominant-baseline: middle; font-size: 10.2px;" transform="translate(5,118.5)" y="0" x="0" id="text-entity-Degree-e331dda9-0526-510e-8fce-15ac3e71ba34-attr-5-type" class="er entityLabel">string</text><rect height="21" width="59.28125" y="108" x="45.14947509765625" class="er attributeBoxOdd"/><text style="dominant-baseline: middle; font-size: 10.2px;" transform="translate(50.14947509765625,118.5)" y="0" x="0" id="text-entity-Degree-e331dda9-0526-510e-8fce-15ac3e71ba34-attr-5-name" class="er entityLabel">description</text></g><g transform="translate(943.6053771972656,615.5 )" id="entity-Course-e6435c0c-5f73-5cd3-80c6-be59c059830f"><rect height="75" width="100" y="0" x="0" class="er entityBox"/><text style="dominant-baseline: middle; text-anchor: middle; font-size: 12px;" transform="translate(50,37.5)" y="0" x="0" id="text-entity-Course-e6435c0c-5f73-5cd3-80c6-be59c059830f" class="er entityLabel">Course</text></g><g transform="translate(1243.6053771972656,599 )" id="entity-Job-7d110984-6e7e-5c4b-993b-9f7e6b56ce9b"><rect height="108" width="100" y="0" x="0" class="er entityBox"/><text style="dominant-baseline: middle; text-anchor: middle; font-size: 12px;" transform="translate(50,12)" y="0" x="0" id="text-entity-Job-7d110984-6e7e-5c4b-993b-9f7e6b56ce9b" class="er entityLabel">Job</text><rect height="21" width="41.36962890625" y="24" x="0" class="er attributeBoxOdd"/><text style="dominant-baseline: middle; font-size: 10.2px;" transform="translate(5,34.5)" y="0" x="0" id="text-entity-Job-7d110984-6e7e-5c4b-993b-9f7e6b56ce9b-attr-1-type" class="er entityLabel">string</text><rect height="21" width="58.63037109375" y="24" x="41.36962890625" class="er attributeBoxOdd"/><text style="dominant-baseline: middle; font-size: 10.2px;" transform="translate(46.36962890625,34.5)" y="0" x="0" id="text-entity-Job-7d110984-6e7e-5c4b-993b-9f7e6b56ce9b-attr-1-name" class="er entityLabel">employer</text><rect height="21" width="41.36962890625" y="45" x="0" class="er attributeBoxEven"/><text style="dominant-baseline: middle; font-size: 10.2px;" transform="translate(5,55.5)" y="0" x="0" id="text-entity-Job-7d110984-6e7e-5c4b-993b-9f7e6b56ce9b-attr-2-type" class="er entityLabel">string</text><rect height="21" width="58.63037109375" y="45" x="41.36962890625" class="er attributeBoxEven"/><text style="dominant-baseline: middle; font-size: 10.2px;" transform="translate(46.36962890625,55.5)" y="0" x="0" id="text-entity-Job-7d110984-6e7e-5c4b-993b-9f7e6b56ce9b-attr-2-name" class="er entityLabel">job-title</text><rect height="21" width="41.36962890625" y="66" x="0" class="er attributeBoxOdd"/><text style="dominant-baseline: middle; font-size: 10.2px;" transform="translate(5,76.5)" y="0" x="0" id="text-entity-Job-7d110984-6e7e-5c4b-993b-9f7e6b56ce9b-attr-3-type" class="er entityLabel">date</text><rect height="21" width="58.63037109375" y="66" x="41.36962890625" class="er attributeBoxOdd"/><text style="dominant-baseline: middle; font-size: 10.2px;" transform="translate(46.36962890625,76.5)" y="0" x="0" id="text-entity-Job-7d110984-6e7e-5c4b-993b-9f7e6b56ce9b-attr-3-name" class="er entityLabel">start</text><rect height="21" width="41.36962890625" y="87" x="0" class="er attributeBoxEven"/><text style="dominant-baseline: middle; font-size: 10.2px;" transform="translate(5,97.5)" y="0" x="0" id="text-entity-Job-7d110984-6e7e-5c4b-993b-9f7e6b56ce9b-attr-4-type" class="er entityLabel">date</text><rect height="21" width="58.63037109375" y="87" x="41.36962890625" class="er attributeBoxEven"/><text style="dominant-baseline: middle; font-size: 10.2px;" transform="translate(46.36962890625,97.5)" y="0" x="0" id="text-entity-Job-7d110984-6e7e-5c4b-993b-9f7e6b56ce9b-attr-4-name" class="er entityLabel">end</text></g><g transform="translate(1455.6366271972656,807 )" id="entity-DescriptionItem-bfe6daf9-517b-5b13-b31c-bca0a91f67fe"><rect height="45" width="113.375" y="0" x="0" class="er entityBox"/><text style="dominant-baseline: middle; text-anchor: middle; font-size: 12px;" transform="translate(56.6875,12)" y="0" x="0" id="text-entity-DescriptionItem-bfe6daf9-517b-5b13-b31c-bca0a91f67fe" class="er entityLabel">DescriptionItem</text><rect height="21" width="61.01542663574219" y="24" x="0" class="er attributeBoxOdd"/><text style="dominant-baseline: middle; font-size: 10.2px;" transform="translate(5,34.5)" y="0" x="0" id="text-entity-DescriptionItem-bfe6daf9-517b-5b13-b31c-bca0a91f67fe-attr-1-type" class="er entityLabel">string</text><rect height="21" width="52.35957336425781" y="24" x="61.01542663574219" class="er attributeBoxOdd"/><text style="dominant-baseline: middle; font-size: 10.2px;" transform="translate(66.01542663574219,34.5)" y="0" x="0" id="text-entity-DescriptionItem-bfe6daf9-517b-5b13-b31c-bca0a91f67fe-attr-1-name" class="er entityLabel">text</text></g><g transform="translate(1462.3241271972656,630.5 )" id="entity-Project-c2395ed5-a5fa-58df-9cbe-a2926add311c"><rect height="45" width="100" y="0" x="0" class="er entityBox"/><text style="dominant-baseline: middle; text-anchor: middle; font-size: 12px;" transform="translate(50,12)" y="0" x="0" id="text-entity-Project-c2395ed5-a5fa-58df-9cbe-a2926add311c" class="er entityLabel">Project</text><rect height="21" width="49.71397399902344" y="24" x="0" class="er attributeBoxOdd"/><text style="dominant-baseline: middle; font-size: 10.2px;" transform="translate(5,34.5)" y="0" x="0" id="text-entity-Project-c2395ed5-a5fa-58df-9cbe-a2926add311c-attr-1-type" class="er entityLabel">string</text><rect height="21" width="50.28602600097656" y="24" x="49.71397399902344" class="er attributeBoxOdd"/><text style="dominant-baseline: middle; font-size: 10.2px;" transform="translate(54.71397399902344,34.5)" y="0" x="0" id="text-entity-Project-c2395ed5-a5fa-58df-9cbe-a2926add311c-attr-1-name" class="er entityLabel">name</text></g><rect height="14" width="44.703125" y="113.17195892333984" x="546.4849853515625" class="er relationshipLabelBox"/><text style="text-anchor: middle; dominant-baseline: middle; font-size: 12px;" y="120.17195892333984" x="568.8365478515625" id="rel1" class="er relationshipLabel">contains</text><rect height="14" width="44.703125" y="103.39631652832031" x="420.87542724609375" class="er relationshipLabelBox"/><text style="text-anchor: middle; dominant-baseline: middle; font-size: 12px;" y="110.39631652832031" x="443.22698974609375" id="rel2" class="er relationshipLabel">contains</text><rect height="14" width="44.703125" y="139.9671630859375" x="147.98533630371094" class="er relationshipLabelBox"/><text style="text-anchor: middle; dominant-baseline: middle; font-size: 12px;" y="146.9671630859375" x="170.33689880371094" id="rel3" class="er relationshipLabel">contains</text><rect height="14" width="44.703125" y="110.29737091064453" x="886.0355834960938" class="er relationshipLabelBox"/><text style="text-anchor: middle; dominant-baseline: middle; font-size: 12px;" y="117.29737091064453" x="908.3871459960938" id="rel4" class="er relationshipLabel">contains</text><rect height="14" width="44.703125" y="121.91995239257812" x="1124.6739501953125" class="er relationshipLabelBox"/><text style="text-anchor: middle; dominant-baseline: middle; font-size: 12px;" y="128.91995239257812" x="1147.0255126953125" id="rel5" class="er relationshipLabel">contains</text><rect height="14" width="44.703125" y="113.61241912841797" x="1232.2376708984375" class="er relationshipLabelBox"/><text style="text-anchor: middle; dominant-baseline: middle; font-size: 12px;" y="120.61241912841797" x="1254.5892333984375" id="rel6" class="er relationshipLabel">contains</text><rect height="14" width="44.03125" y="319" x="466.974365234375" class="er relationshipLabelBox"/><text style="text-anchor: middle; dominant-baseline: middle; font-size: 12px;" y="326" x="488.989990234375" id="rel7" class="er relationshipLabel">includes</text><rect height="14" width="46.029296875" y="516.5938720703125" x="308.8017272949219" class="er relationshipLabelBox"/><text style="text-anchor: middle; dominant-baseline: middle; font-size: 12px;" y="523.5938720703125" x="331.8163757324219" id="rel8" class="er relationshipLabel">is one of</text><rect height="14" width="46.029296875" y="544.25" x="465.975341796875" class="er relationshipLabelBox"/><text style="text-anchor: middle; dominant-baseline: middle; font-size: 12px;" y="551.25" x="488.989990234375" id="rel9" class="er relationshipLabel">is one of</text><rect height="14" width="46.029296875" y="517.694091796875" x="619.4783935546875" class="er relationshipLabelBox"/><text style="text-anchor: middle; dominant-baseline: middle; font-size: 12px;" y="524.694091796875" x="642.4930419921875" id="rel10" class="er relationshipLabel">is one of</text><rect height="14" width="44.03125" y="781.868896484375" x="512.7881469726562" class="er relationshipLabelBox"/><text style="text-anchor: middle; dominant-baseline: middle; font-size: 12px;" y="788.868896484375" x="534.8037719726562" id="rel11" class="er relationshipLabel">includes</text><rect height="14" width="55.703125" y="895" x="1050.1954345703125" class="er relationshipLabelBox"/><text style="text-anchor: middle; dominant-baseline: middle; font-size: 12px;" y="902" x="1078.0469970703125" id="rel12" class="er relationshipLabel">belongs to</text><rect height="14" width="44.03125" y="313" x="971.58935546875" class="er relationshipLabelBox"/><text style="text-anchor: middle; dominant-baseline: middle; font-size: 12px;" y="320" x="993.60498046875" id="rel13" class="er relationshipLabel">includes</text><rect height="14" width="38.703125" y="550.25" x="974.25341796875" class="er relationshipLabelBox"/><text style="text-anchor: middle; dominant-baseline: middle; font-size: 12px;" y="557.25" x="993.60498046875" id="rel14" class="er relationshipLabel">studied</text><rect height="14" width="55.390625" y="674.1515502929688" x="816.5299682617188" class="er relationshipLabelBox"/><text style="text-anchor: middle; dominant-baseline: middle; font-size: 12px;" y="681.1515502929688" x="844.2252807617188" id="rel15" class="er relationshipLabel">developed</text><rect height="14" width="55.390625" y="750.3552856445312" x="977.261474609375" class="er relationshipLabelBox"/><text style="text-anchor: middle; dominant-baseline: middle; font-size: 12px;" y="757.3552856445312" x="1004.956787109375" id="rel16" class="er relationshipLabel">developed</text><rect height="14" width="44.03125" y="528.5" x="1271.58935546875" class="er relationshipLabelBox"/><text style="text-anchor: middle; dominant-baseline: middle; font-size: 12px;" y="535.5" x="1293.60498046875" id="rel17" class="er relationshipLabel">includes</text><rect height="14" width="44.03125" y="750.691162109375" x="1385.87646484375" class="er relationshipLabelBox"/><text style="text-anchor: middle; dominant-baseline: middle; font-size: 12px;" y="757.691162109375" x="1407.89208984375" id="rel18" class="er relationshipLabel">includes</text><rect height="14" width="48.703125" y="735.510986328125" x="1142.5814208984375" class="er relationshipLabelBox"/><text style="text-anchor: middle; dominant-baseline: middle; font-size: 12px;" y="742.510986328125" x="1166.9329833984375" id="rel19" class="er relationshipLabel">practiced</text><rect height="14" width="44.03125" y="544.25" x="1490.308349609375" class="er relationshipLabelBox"/><text style="text-anchor: middle; dominant-baseline: middle; font-size: 12px;" y="551.25" x="1512.323974609375" id="rel20" class="er relationshipLabel">includes</text><rect height="14" width="48.703125" y="745.8876342773438" x="1276.6229248046875" class="er relationshipLabelBox"/><text style="text-anchor: middle; dominant-baseline: middle; font-size: 12px;" y="752.8876342773438" x="1300.9744873046875" id="rel21" class="er relationshipLabel">practiced</text><rect height="14" width="44.03125" y="734.5128173828125" x="1526.8983154296875" class="er relationshipLabelBox"/><text style="text-anchor: middle; dominant-baseline: middle; font-size: 12px;" y="741.5128173828125" x="1548.9139404296875" id="rel22" class="er relationshipLabel">includes</text></svg>